<svg xmlns="http://www.w3.org/2000/svg" viewBox="0 0 238.1 83.05"><defs><style>.a{fill:#231f20;}.b{fill:#e72639;}</style></defs><title>iodaa_logo</title><path class="a" d="M.84 19.74h11.43v34.71H.84zM11.18 1.81A6.45 6.45 0 0 0 9.1.49 6.8 6.8 0 0 0 6.56 0a6.31 6.31 0 0 0-2.58.52 7.53 7.53 0 0 0-2.09 1.36 5.7 5.7 0 0 0-1.39 2 6.09 6.09 0 0 0-.49 2.4 6 6 0 0 0 1.88 4.43 6.4 6.4 0 0 0 4.66 1.84 6.78 6.78 0 0 0 2.55-.49 6.25 6.25 0 0 0 3.48-3.31 6.12 6.12 0 0 0 0-4.95 6.39 6.39 0 0 0-1.4-1.99zm48.2 21.74a18.5 18.5 0 0 0-6.13-3.62 22.69 22.69 0 0 0-14.88 0 18 18 0 0 0-6.14 3.62 17.21 17.21 0 0 0-4.13 5.74 18.52 18.52 0 0 0-1.53 7.67 18.76 18.76 0 0 0 1.53 7.7 17.49 17.49 0 0 0 4.13 5.89 18.62 18.62 0 0 0 6.13 3.73 21.55 21.55 0 0 0 14.88 0 19.13 19.13 0 0 0 6.14-3.73 17.27 17.27 0 0 0 4.18-5.85 18.77 18.77 0 0 0 1.53-7.7 18.53 18.53 0 0 0-1.53-7.67 17 17 0 0 0-4.18-5.78zM54.1 40.21a8.69 8.69 0 0 1-1.69 2.87 8.22 8.22 0 0 1-2.77 2 10 10 0 0 1-7.65 0 8.21 8.21 0 0 1-2.77-2 8.69 8.69 0 0 1-1.69-2.87 9.66 9.66 0 0 1 0-6.5 8 8 0 0 1 4.39-4.77 10 10 0 0 1 7.65 0 8.74 8.74 0 0 1 2.77 2 8.46 8.46 0 0 1 1.76 2.77 9.14 9.14 0 0 1 .6 3.25 9.68 9.68 0 0 1-.6 3.25zm105.36-17.16a11.07 11.07 0 0 0-4.91-3.35 22.27 22.27 0 0 0-7.45-1.07 24.47 24.47 0 0 0-8.33 1.46 20 20 0 0 0-7.14 4.39l5.78 6.2a15 15 0 0 1 3.87-2.51 11.09 11.09 0 0 1 4.7-1 7.81 7.81 0 0 1 4.46 1.22 4.26 4.26 0 0 1 1.81 3.8v.56a73.89 73.89 0 0 0-7.74.42 28.06 28.06 0 0 0-7.21 1.67 13.48 13.48 0 0 0-5.3 3.55 8.75 8.75 0 0 0-2.06 6.06 10.32 10.32 0 0 0 1.22 5.1 9.81 9.81 0 0 0 3 3.35 12.62 12.62 0 0 0 4.08 1.81 17.79 17.79 0 0 0 4.32.56 14.26 14.26 0 0 0 5.82-1.18 8.61 8.61 0 0 0 4-3.35h.21v3.71h10.51V36.96a33.75 33.75 0 0 0-.87-8.19 14.27 14.27 0 0 0-2.77-5.72zm-6.83 17.5a7.17 7.17 0 0 1-1.85 5.19 7.07 7.07 0 0 1-5.33 1.92 9.16 9.16 0 0 1-1.74-.17 4.87 4.87 0 0 1-1.6-.59 3.51 3.51 0 0 1-1.15-1.12 3 3 0 0 1-.45-1.67 3.28 3.28 0 0 1 1-2.47 6.32 6.32 0 0 1 2.47-1.43 15.66 15.66 0 0 1 3.42-.66q1.92-.17 3.8-.17h1.46zm56-11.78a14.27 14.27 0 0 0-2.75-5.72 11.07 11.07 0 0 0-4.91-3.35 22.27 22.27 0 0 0-7.42-1.08 24.47 24.47 0 0 0-8.33 1.46 20 20 0 0 0-7.12 4.4l5.78 6.2a15 15 0 0 1 3.87-2.51 11.09 11.09 0 0 1 4.7-1 7.81 7.81 0 0 1 4.46 1.22 4.26 4.26 0 0 1 1.81 3.8v.56a73.89 73.89 0 0 0-7.74.42 28.06 28.06 0 0 0-7.21 1.67 13.48 13.48 0 0 0-5.3 3.55 8.75 8.75 0 0 0-2.06 6.06 10.32 10.32 0 0 0 1.17 5.1 9.81 9.81 0 0 0 3 3.35 12.62 12.62 0 0 0 4.08 1.81 17.79 17.79 0 0 0 4.32.56 14.26 14.26 0 0 0 5.82-1.18 8.61 8.61 0 0 0 4-3.35h.21v3.71h10.49V36.96a33.75 33.75 0 0 0-.87-8.19zm-9.59 11.78a7.17 7.17 0 0 1-1.85 5.19 7.07 7.07 0 0 1-5.33 1.92 9.16 9.16 0 0 1-1.76-.21 4.87 4.87 0 0 1-1.6-.59 3.51 3.51 0 0 1-1.15-1.12 3 3 0 0 1-.45-1.67 3.28 3.28 0 0 1 1-2.47 6.32 6.32 0 0 1 2.47-1.43 15.66 15.66 0 0 1 3.42-.66q1.92-.17 3.8-.17h1.46zM104.68 1.76v21.68h-.14a14.39 14.39 0 0 0-4.11-3.21 13.24 13.24 0 0 0-6.48-1.46 15.28 15.28 0 0 0-12 5.44 18.08 18.08 0 0 0-3.28 5.82 21 21 0 0 0-1.15 6.93 21.89 21.89 0 0 0 1.12 7 17.9 17.9 0 0 0 3.24 5.89 16 16 0 0 0 5.22 4.04 15.37 15.37 0 0 0 7 1.53 15.57 15.57 0 0 0 6.59-1.43 10.85 10.85 0 0 0 4.77-4.08h.14v4.54h10.5V0h-11.42zm-.63 38.51a9.08 9.08 0 0 1-1.78 2.83 8.83 8.83 0 0 1-2.79 2 8.71 8.71 0 0 1-3.72.76 8.89 8.89 0 0 1-3.79-.76 8.38 8.38 0 0 1-2.75-2 8.28 8.28 0 0 1-1.67-2.87 10 10 0 0 1-.56-3.28 9.75 9.75 0 0 1 .56-3.25 8 8 0 0 1 1.67-2.8 8.66 8.66 0 0 1 2.75-2 8.9 8.9 0 0 1 3.79-.76 8.73 8.73 0 0 1 3.72.76 8.83 8.83 0 0 1 2.79 2 9.08 9.08 0 0 1 1.78 2.83 8.67 8.67 0 0 1 0 6.5z"/><circle class="b" cx="223.8" cy="68.74" r="14.3"/></svg>